<svg
  xmlns="http://www.w3.org/2000/svg"
  viewBox="0 0 8000 8544.18"
  fill="none"
>
  <path
    d="M-.95 5516.85h2599.44V2780.52c0-326.81 3.19-452.27 126.81-454.2l2850.28-44.47-.04-2276.06-3713.72-3.5C2154.26 1.62 1582.08 165.43 1188.66 855.16c-113.21 198.5-186.45 446.95-186.56 714.12L100 5516.86Z"
    fill="#01ACC8"
  />
  <path
    d="m3121.92 5515.11 1848.14 7.57c137.89.51 80.1 292.55 81.68 732.8 1.53 438.2 1.77 877.22 1.1 1315.42-.31 224.64.16 449.28-.71 673.88-1.33 340.53-30.15 318.18 336.42 283.53 1380.86-130.59 2534.16-1254.3 2607.2-2704.96 78.6-1561.86-987.12-2982.02-2346.06-2967.63l-2523.64 26.76-4.14 2632.63Z"
    fill="#E3322C"
  />
  <rect x="5881.4" y="5.79" width="1911.14" height="2285.56" rx="173.24" ry="203.36" fill="#F99E1C" />
  <rect x="-.92" y="6085.87" width="4504.39" height="2460.96" fill="#1CBBA9" />
</svg>
