<?xml version="1.0" encoding="UTF-8"?>
<!DOCTYPE svg PUBLIC "-//W3C//DTD SVG 1.1//EN" "http://www.w3.org/Graphics/SVG/1.1/DTD/svg11.dtd">
<!-- Creator: CorelDRAW -->
<svg xmlns="http://www.w3.org/2000/svg" xml:space="preserve" width="8in" height="8in" version="1.1" style="shape-rendering:geometricPrecision; text-rendering:geometricPrecision; image-rendering:optimizeQuality; fill-rule:evenodd; clip-rule:evenodd"
viewBox="0 0 8000 8544.18"
 xmlns:xlink="http://www.w3.org/1999/xlink"
 xmlns:xodm="http://www.corel.com/coreldraw/odm/2003">
 <defs>
  <style type="text/css">
   <![CDATA[
    .fil0 {fill:#01ACC8}
    .fil3 {fill:#1CBBA9}
    .fil1 {fill:#E3322C}
    .fil2 {fill:#F99E1C}
   ]]>
  </style>
 </defs>
 <g id="Layer_x0020_1">
  <metadata id="CorelCorpID_0Corel-Layer"/>
  <g id="_1601038035520">
   <path class="fil0" d="M-0.95 5516.85l2599.44 0 0 -2736.33c0,-326.81 3.19,-452.27 126.81,-454.2l2850.28 -44.47 -0.04 -2276.06 -3713.72 -3.5c-708.56,-0.67 -1280.74,163.14 -1674.16,852.87 -113.21,198.5 -186.45,446.95 -186.56,714.12l-2.06 3947.58z"/>
   <path class="fil1" d="M3121.92 5515.11l1848.14 7.57c137.89,0.51 80.1,292.55 81.68,732.8 1.53,438.2 1.77,877.22 1.1,1315.42 -0.31,224.64 0.16,449.28 -0.71,673.88 -1.33,340.53 -30.15,318.18 336.42,283.53 1380.86,-130.59 2534.16,-1254.3 2607.2,-2704.96 78.6,-1561.86 -987.12,-2982.02 -2346.06,-2967.63l-2523.64 26.76 -4.14 2632.63z"/>
   <rect class="fil2" x="5881.4" y="5.79" width="1911.14" height="2285.56" rx="173.24" ry="203.36"/>
   <rect class="fil3" x="-0.92" y="6085.87" width="4504.39" height="2460.96"/>
  </g>
 </g>
</svg>
