<?xml version="1.0" encoding="iso-8859-1"?>
<!-- Uploaded to: SVG Repo, www.svgrepo.com, Generator: SVG Repo Mixer Tools -->
<!DOCTYPE svg PUBLIC "-//W3C//DTD SVG 1.1//EN" "http://www.w3.org/Graphics/SVG/1.1/DTD/svg11.dtd">
<svg fill="#000000" version="1.1" id="Capa_1" xmlns="http://www.w3.org/2000/svg" xmlns:xlink="http://www.w3.org/1999/xlink" 
	 width="800px" height="800px" viewBox="0 0 901.013 901.013"
	 xml:space="preserve">
<g>
	<path d="M743.514,174.635H397.508c-28.995,0-52.5,23.505-52.5,52.5s23.505,52.5,52.5,52.5h346.005c28.948,0,52.5,23.552,52.5,52.5
		v238.744c0,28.948-23.552,52.5-52.5,52.5H289.092c-28.948,0-52.5-23.552-52.5-52.5V352.473l42.192,41.689
		c10.23,10.109,23.565,15.155,36.896,15.155c13.541,0,27.078-5.207,37.347-15.602c20.381-20.625,20.181-53.865-0.444-74.244
		L219.312,187.79c-20.624-20.38-53.866-20.181-74.244,0.445L15.155,319.715c-20.38,20.625-20.18,53.865,0.445,74.244
		c20.624,20.38,53.867,20.181,74.244-0.445l41.747-42.25v219.615c0,86.846,70.654,157.5,157.5,157.5h454.421
		c86.846,0,157.5-70.654,157.5-157.5V332.135C901.014,245.289,830.359,174.635,743.514,174.635z"/>
</g>
</svg>