<?xml version="1.0" encoding="UTF-8"?>
<!-- Uploaded to: SVG Find, www.svgfind.com, Generator: SVG Find Mixer Tools -->
<svg fill="#000000" width="800px" height="800px" version="1.1" viewBox="144 144 512 512" xmlns="http://www.w3.org/2000/svg">
 <path d="m347.1 515.88c0 27.711-22.672 50.383-50.383 50.383-27.711 0-50.383-22.672-50.383-50.383s22.672-50.383 50.383-50.383c27.711 0 50.383 22.672 50.383 50.383zm100.76-231.75c14.105 0 25.191-11.082 25.191-25.191 0-14.105-11.082-25.191-25.191-25.191-14.105 0-25.191 11.082-25.191 25.191 0.003906 14.109 11.086 25.191 25.191 25.191zm166.26 191.45c0 24.688-16.121 45.344-38.289 52.395l-229.74 87.16c-15.113 7.5586-31.738 11.586-49.375 11.586-60.961 0-110.84-49.879-110.84-110.84 0-20.656 5.543-40.305 15.617-56.93 0 0 0-0.50391 0.50391-0.50391 2.5195-4.5352 5.543-8.5664 9.0703-12.594l168.27-238.3c0.50391-0.50391 0.50391-1.0078 1.0078-1.5117 15.617-20.152 40.305-33.25 67.512-33.25 35.77 0 66.504 22.168 79.098 52.898 0 0 0 0.50391 0.50391 0.50391l79.602 221.68c4.5352 8.5664 7.0547 17.633 7.0547 27.711zm-211.6-216.64c0 25.191 20.152 45.344 45.344 45.344s45.344-20.152 45.344-45.344-20.152-45.344-45.344-45.344c-25.188 0-45.344 20.152-45.344 45.344zm-35.266 256.94c0-38.793-31.738-70.535-70.535-70.535-38.793 0-70.535 31.738-70.535 70.535 0 38.793 31.738 70.535 70.535 70.535 38.797-0.003906 70.535-31.742 70.535-70.535zm209.08-92.703-48.367-134.52c-12.09 32.746-43.328 55.922-80.105 55.922-44.84 0-81.617-34.762-85.145-78.594l-102.77 145.1c11.586-4.0312 23.68-6.0469 36.777-6.0469 60.961 0 110.84 49.879 110.84 110.84 0 22.672-7.0547 43.832-18.641 61.465l142.07-53.906c-16.625-9.5742-27.711-27.711-27.711-47.863 0-30.73 24.688-55.418 55.418-55.418 6.0508 0 12.094 1.0078 17.637 3.0195z"/>
</svg>